name rise30.3154peak39.0474fall46.5389.mot
datacolumns 19
datarows 18
range 18.78660100000000 18.81493100000000
endheader
time	ground_force1_vx	ground_force1_vy	ground_force1_vz	ground_force1_px	ground_force1_py	ground_force1_pz	ground_force2_vx	ground_force2_vy	ground_force2_vz	ground_force2_px	ground_force2_py	ground_force2_pz	ground_torque1_x	ground_torque1_y	ground_torque1_z	ground_torque2_x	ground_torque2_y	ground_torque2_z	
18.78660100000000	2.69271400000000	676.55798200000004	36.83822600000000	0.24682300000000	0.00000000000000	0.11785400000000	0.00000000000000	0.00000000000000	0.00000000000000	0.00000000000000	0.00000000000000	0.00000000000000	0.00000000000000	16.88916600000000	0.00000000000000	0.00000000000000	0.00000000000000	0.00000000000000	
18.78826100000000	2.12184700000000	677.18083100000001	36.90565900000000	0.24538500000000	0.00000000000000	0.11785900000000	0.00000000000000	0.00000000000000	0.00000000000000	0.00000000000000	0.00000000000000	0.00000000000000	0.00000000000000	17.01742300000000	0.00000000000000	0.00000000000000	0.00000000000000	0.00000000000000	
18.78992900000000	1.54634600000000	677.88400700000000	36.98096400000000	0.24399200000000	0.00000000000000	0.11786000000000	0.00000000000000	0.00000000000000	0.00000000000000	0.00000000000000	0.00000000000000	0.00000000000000	0.00000000000000	17.15397300000000	0.00000000000000	0.00000000000000	0.00000000000000	0.00000000000000	
18.79159600000000	0.96661400000000	678.66723999999999	37.06380400000000	0.24264700000000	0.00000000000000	0.11785600000000	0.00000000000000	0.00000000000000	0.00000000000000	0.00000000000000	0.00000000000000	0.00000000000000	0.00000000000000	17.29851900000000	0.00000000000000	0.00000000000000	0.00000000000000	0.00000000000000	
18.79326100000000	0.38306900000000	679.53024600000003	37.15384800000000	0.24134900000000	0.00000000000000	0.11784900000000	0.00000000000000	0.00000000000000	0.00000000000000	0.00000000000000	0.00000000000000	0.00000000000000	0.00000000000000	17.45075000000000	0.00000000000000	0.00000000000000	0.00000000000000	0.00000000000000	
18.79492900000000	-0.20385800000000	680.47272599999997	37.25076500000000	0.24010000000000	0.00000000000000	0.11783700000000	0.00000000000000	0.00000000000000	0.00000000000000	0.00000000000000	0.00000000000000	0.00000000000000	0.00000000000000	17.61035100000000	0.00000000000000	0.00000000000000	0.00000000000000	0.00000000000000	
18.79660100000000	-0.79372600000000	681.49436300000002	37.35423400000000	0.23890100000000	0.00000000000000	0.11782000000000	0.00000000000000	0.00000000000000	0.00000000000000	0.00000000000000	0.00000000000000	0.00000000000000	0.00000000000000	17.77699800000000	0.00000000000000	0.00000000000000	0.00000000000000	0.00000000000000	
18.79826600000000	-1.38608900000000	682.59482100000002	37.46393700000000	0.23775100000000	0.00000000000000	0.11779900000000	0.00000000000000	0.00000000000000	0.00000000000000	0.00000000000000	0.00000000000000	0.00000000000000	0.00000000000000	17.95036300000000	0.00000000000000	0.00000000000000	0.00000000000000	0.00000000000000	
18.79993200000000	-1.98049700000000	683.77374199999997	37.57956400000000	0.23665100000000	0.00000000000000	0.11777400000000	0.00000000000000	0.00000000000000	0.00000000000000	0.00000000000000	0.00000000000000	0.00000000000000	0.00000000000000	18.13011100000000	0.00000000000000	0.00000000000000	0.00000000000000	0.00000000000000	
18.80159700000000	-2.57649800000000	685.03074500000002	37.70081200000000	0.23560100000000	0.00000000000000	0.11774300000000	0.00000000000000	0.00000000000000	0.00000000000000	0.00000000000000	0.00000000000000	0.00000000000000	0.00000000000000	18.31590300000000	0.00000000000000	0.00000000000000	0.00000000000000	0.00000000000000	
18.80326500000000	-3.17364500000000	686.36541599999998	37.82738900000000	0.23460100000000	0.00000000000000	0.11770900000000	0.00000000000000	0.00000000000000	0.00000000000000	0.00000000000000	0.00000000000000	0.00000000000000	0.00000000000000	18.50739800000000	0.00000000000000	0.00000000000000	0.00000000000000	0.00000000000000	
18.80493200000000	-3.77149500000000	687.77731200000005	37.95901000000000	0.23365000000000	0.00000000000000	0.11766900000000	0.00000000000000	0.00000000000000	0.00000000000000	0.00000000000000	0.00000000000000	0.00000000000000	0.00000000000000	18.70425300000000	0.00000000000000	0.00000000000000	0.00000000000000	0.00000000000000	
18.80660200000000	-4.36961500000000	689.26595099999997	38.09540300000000	0.23274700000000	0.00000000000000	0.11762400000000	0.00000000000000	0.00000000000000	0.00000000000000	0.00000000000000	0.00000000000000	0.00000000000000	0.00000000000000	18.90612100000000	0.00000000000000	0.00000000000000	0.00000000000000	0.00000000000000	
18.80826200000000	-4.96758300000000	690.83081100000004	38.23630300000000	0.23189300000000	0.00000000000000	0.11757500000000	0.00000000000000	0.00000000000000	0.00000000000000	0.00000000000000	0.00000000000000	0.00000000000000	0.00000000000000	19.11265800000000	0.00000000000000	0.00000000000000	0.00000000000000	0.00000000000000	
18.80992800000000	-5.56499000000000	692.47132299999998	38.38146000000000	0.23108500000000	0.00000000000000	0.11752200000000	0.00000000000000	0.00000000000000	0.00000000000000	0.00000000000000	0.00000000000000	0.00000000000000	0.00000000000000	19.32351800000000	0.00000000000000	0.00000000000000	0.00000000000000	0.00000000000000	
18.81159700000000	-6.16144400000000	694.18686600000001	38.53063300000000	0.23032200000000	0.00000000000000	0.11746300000000	0.00000000000000	0.00000000000000	0.00000000000000	0.00000000000000	0.00000000000000	0.00000000000000	0.00000000000000	19.53835700000000	0.00000000000000	0.00000000000000	0.00000000000000	0.00000000000000	
18.81326400000000	-6.75657200000000	695.97676200000001	38.68359500000000	0.22960400000000	0.00000000000000	0.11740100000000	0.00000000000000	0.00000000000000	0.00000000000000	0.00000000000000	0.00000000000000	0.00000000000000	0.00000000000000	19.75683200000000	0.00000000000000	0.00000000000000	0.00000000000000	0.00000000000000	
18.81493100000000	-7.35002300000000	697.84026900000003	38.84013000000000	0.22892900000000	0.00000000000000	0.11733400000000	0.00000000000000	0.00000000000000	0.00000000000000	0.00000000000000	0.00000000000000	0.00000000000000	0.00000000000000	19.97860300000000	0.00000000000000	0.00000000000000	0.00000000000000	0.00000000000000	
